<mxfile host="app.diagrams.net" modified="2024-07-02T11:03:58.067Z" agent="Mozilla/5.0 (Windows NT 10.0; Win64; x64) AppleWebKit/537.36 (KHTML, like Gecko) Chrome/126.0.0.0 Safari/537.36" etag="j2sYd4cC-eRJh74aZBpq" version="24.6.4" type="device">
  <diagram name="Page-1" id="7omaspcc_fQOutTp8ri1">
    <mxGraphModel dx="956" dy="413" grid="1" gridSize="10" guides="1" tooltips="1" connect="1" arrows="1" fold="1" page="1" pageScale="1" pageWidth="850" pageHeight="1100" math="0" shadow="0">
      <root>
        <mxCell id="0" />
        <mxCell id="1" parent="0" />
        <mxCell id="ED0Y8TlKMr62_pu72-rU-2" value="&lt;font style=&quot;font-size: 18px;&quot;&gt;start&lt;/font&gt;" style="strokeWidth=2;html=1;shape=mxgraph.flowchart.terminator;whiteSpace=wrap;" vertex="1" parent="1">
          <mxGeometry x="350" y="20" width="100" height="60" as="geometry" />
        </mxCell>
        <mxCell id="ED0Y8TlKMr62_pu72-rU-3" value="" style="endArrow=classic;html=1;rounded=0;" edge="1" parent="1">
          <mxGeometry width="50" height="50" relative="1" as="geometry">
            <mxPoint x="399.5" y="80" as="sourcePoint" />
            <mxPoint x="400" y="120" as="targetPoint" />
          </mxGeometry>
        </mxCell>
        <mxCell id="ED0Y8TlKMr62_pu72-rU-11" value="&lt;font size=&quot;3&quot;&gt;คิดเมนู&lt;/font&gt;" style="rounded=0;whiteSpace=wrap;html=1;" vertex="1" parent="1">
          <mxGeometry x="340" y="120" width="120" height="40" as="geometry" />
        </mxCell>
        <mxCell id="ED0Y8TlKMr62_pu72-rU-13" value="" style="edgeStyle=orthogonalEdgeStyle;rounded=0;orthogonalLoop=1;jettySize=auto;html=1;" edge="1" parent="1">
          <mxGeometry relative="1" as="geometry">
            <mxPoint x="400.13" y="160" as="sourcePoint" />
            <mxPoint x="399.88" y="190" as="targetPoint" />
          </mxGeometry>
        </mxCell>
        <mxCell id="ED0Y8TlKMr62_pu72-rU-15" value="&lt;font size=&quot;3&quot;&gt;ทำรายการที่จะซื้อ&lt;/font&gt;" style="rounded=0;whiteSpace=wrap;html=1;" vertex="1" parent="1">
          <mxGeometry x="330" y="190" width="140" height="40" as="geometry" />
        </mxCell>
        <mxCell id="ED0Y8TlKMr62_pu72-rU-16" value="&lt;font size=&quot;3&quot;&gt;ไปตลาดหน้าบ้าน&lt;/font&gt;" style="rounded=0;whiteSpace=wrap;html=1;" vertex="1" parent="1">
          <mxGeometry x="340" y="260" width="120" height="40" as="geometry" />
        </mxCell>
        <mxCell id="ED0Y8TlKMr62_pu72-rU-17" value="" style="edgeStyle=orthogonalEdgeStyle;rounded=0;orthogonalLoop=1;jettySize=auto;html=1;" edge="1" parent="1">
          <mxGeometry relative="1" as="geometry">
            <mxPoint x="399.90999999999997" y="230" as="sourcePoint" />
            <mxPoint x="399.65999999999997" y="260" as="targetPoint" />
          </mxGeometry>
        </mxCell>
        <mxCell id="ED0Y8TlKMr62_pu72-rU-18" value="&lt;font size=&quot;3&quot;&gt;ซื้อวัตถุดิบ&lt;/font&gt;" style="rounded=0;whiteSpace=wrap;html=1;" vertex="1" parent="1">
          <mxGeometry x="490" y="720" width="120" height="40" as="geometry" />
        </mxCell>
        <mxCell id="ED0Y8TlKMr62_pu72-rU-20" value="" style="edgeStyle=orthogonalEdgeStyle;rounded=0;orthogonalLoop=1;jettySize=auto;html=1;" edge="1" parent="1">
          <mxGeometry relative="1" as="geometry">
            <mxPoint x="400.00999999999993" y="300" as="sourcePoint" />
            <mxPoint x="400" y="340" as="targetPoint" />
          </mxGeometry>
        </mxCell>
        <mxCell id="ED0Y8TlKMr62_pu72-rU-21" value="ตลาดเปิด" style="rhombus;whiteSpace=wrap;html=1;" vertex="1" parent="1">
          <mxGeometry x="360" y="340" width="80" height="80" as="geometry" />
        </mxCell>
        <mxCell id="ED0Y8TlKMr62_pu72-rU-24" value="" style="edgeStyle=orthogonalEdgeStyle;rounded=0;orthogonalLoop=1;jettySize=auto;html=1;" edge="1" parent="1">
          <mxGeometry relative="1" as="geometry">
            <mxPoint x="399.7099999999999" y="420" as="sourcePoint" />
            <mxPoint x="399.7" y="460" as="targetPoint" />
          </mxGeometry>
        </mxCell>
        <mxCell id="ED0Y8TlKMr62_pu72-rU-26" value="" style="endArrow=none;html=1;rounded=0;exitX=0;exitY=0.5;exitDx=0;exitDy=0;" edge="1" parent="1" source="ED0Y8TlKMr62_pu72-rU-21">
          <mxGeometry width="50" height="50" relative="1" as="geometry">
            <mxPoint x="350" y="380" as="sourcePoint" />
            <mxPoint x="280" y="380" as="targetPoint" />
          </mxGeometry>
        </mxCell>
        <mxCell id="ED0Y8TlKMr62_pu72-rU-27" value="" style="endArrow=classic;html=1;rounded=0;" edge="1" parent="1">
          <mxGeometry width="50" height="50" relative="1" as="geometry">
            <mxPoint x="280" y="380" as="sourcePoint" />
            <mxPoint x="280" y="460" as="targetPoint" />
          </mxGeometry>
        </mxCell>
        <mxCell id="ED0Y8TlKMr62_pu72-rU-28" value="N" style="text;html=1;align=center;verticalAlign=middle;resizable=0;points=[];autosize=1;strokeColor=none;fillColor=none;" vertex="1" parent="1">
          <mxGeometry x="265" y="348" width="30" height="30" as="geometry" />
        </mxCell>
        <mxCell id="ED0Y8TlKMr62_pu72-rU-29" value="Y" style="text;html=1;align=center;verticalAlign=middle;resizable=0;points=[];autosize=1;strokeColor=none;fillColor=none;" vertex="1" parent="1">
          <mxGeometry x="400" y="420" width="30" height="30" as="geometry" />
        </mxCell>
        <mxCell id="ED0Y8TlKMr62_pu72-rU-31" value="" style="rounded=0;whiteSpace=wrap;html=1;" vertex="1" parent="1">
          <mxGeometry x="240" y="470" width="80" height="30" as="geometry" />
        </mxCell>
      </root>
    </mxGraphModel>
  </diagram>
</mxfile>
